<?xml version="1.0" encoding="UTF-8" standalone="no"?>
<svg
   xmlns:dc="http://purl.org/dc/elements/1.1/"
   xmlns:cc="http://creativecommons.org/ns#"
   xmlns:rdf="http://www.w3.org/1999/02/22-rdf-syntax-ns#"
   xmlns:svg="http://www.w3.org/2000/svg"
   xmlns="http://www.w3.org/2000/svg"
   viewBox="0 0 755.90546 755.90546"
   height="755.90546"
   width="755.90546"
   xml:space="preserve"
   id="svg2"
   version="1.1"><metadata
     id="metadata8"><rdf:RDF><cc:Work
         rdf:about=""><dc:format>image/svg+xml</dc:format><dc:type
           rdf:resource="http://purl.org/dc/dcmitype/StillImage" /></cc:Work></rdf:RDF></metadata><defs
     id="defs6" /><g
     transform="matrix(1.3333333,0,0,-1.3333333,0,755.90547)"
     id="g10"><g
       id="g12"><g
         id="g14"><path
           id="path16"
           style="fill:#00a7e0;fill-opacity:1;fill-rule:nonzero;stroke:none"
           d="m 332.886,356.612 c -15.5916,-5.7033 -32.6899,-15.406 -54.7248,-26.3313 -18.1933,-9.0198 -36.3809,-7.3865 -52.2065,-1.6242 0,-0.1242 -0.009,-0.2452 -0.009,-0.3691 0,-31.6037 25.6204,-57.2244 57.2244,-57.2244 31.6038,0 57.2253,25.6207 57.2253,57.2244 0,10.3079 -2.7411,19.9712 -7.5096,28.3246" /><path
           id="path18"
           style="fill:#00a7e0;fill-opacity:1;fill-rule:nonzero;stroke:none"
           d="m 266.33,343.4737 c 0,-5.8218 -4.7214,-10.5417 -10.544,-10.5417 -5.8196,0 -10.539,4.7199 -10.539,10.5417 0,5.8207 4.7194,10.5421 10.539,10.5421 5.8226,0 10.544,-4.7214 10.544,-10.5421" /><path
           id="path20"
           style="fill:#00a7e0;fill-opacity:1;fill-rule:nonzero;stroke:none"
           d="m 278.2945,365.9967 c 0,-3.3024 -2.6774,-5.9842 -5.9817,-5.9842 -3.3046,0 -5.9834,2.6818 -5.9834,5.9842 0,3.3032 2.6788,5.9842 5.9834,5.9842 3.3043,0 5.9817,-2.681 5.9817,-5.9842" /><path
           id="path22"
           style="fill:#00a7e0;fill-opacity:1;fill-rule:nonzero;stroke:none"
           d="m 255.7862,370.4644 c 0,-1.372 -1.11,-2.482 -2.4808,-2.482 -1.3695,0 -2.4821,1.11 -2.4821,2.482 0,1.368 1.1126,2.4794 2.4821,2.4794 1.3708,0 2.4808,-1.1114 2.4808,-2.4794" /><path
           id="path24"
           style="fill:#ffffff;fill-opacity:1;fill-rule:nonzero;stroke:none"
           d="m 309.6751,329.1834 c 0,6.3839 5.1803,11.5634 11.5654,11.5634 6.3842,0 11.5602,-5.1795 11.5602,-11.5634 0,-6.385 -5.176,-11.5633 -11.5602,-11.5633 -6.3851,0 -11.5654,5.1783 -11.5654,11.5633" /><path
           id="path26"
           style="fill:#ffffff;fill-opacity:1;fill-rule:nonzero;stroke:none"
           d="m 296.5521,304.4786 c 0,3.6241 2.9387,6.5642 6.5619,6.5642 3.6241,0 6.5608,-2.9401 6.5608,-6.5642 0,-3.6229 -2.9367,-6.5639 -6.5608,-6.5639 -3.6232,0 -6.5619,2.941 -6.5619,6.5639" /><path
           id="path28"
           style="fill:#ffffff;fill-opacity:1;fill-rule:nonzero;stroke:none"
           d="m 321.2408,299.579 c 0,1.5035 1.2177,2.7226 2.7226,2.7226 1.5013,0 2.719,-1.2191 2.719,-2.7226 0,-1.5013 -1.2177,-2.7204 -2.719,-2.7204 -1.5049,0 -2.7226,1.2191 -2.7226,2.7204" /><path
           id="path30"
           style="fill:#ffffff;fill-opacity:1;fill-rule:nonzero;stroke:none"
           d="m 244.9327,304.4786 c 0,4.6236 3.7482,8.375 8.3729,8.375 4.6245,0 8.3741,-3.7514 8.3741,-8.375 0,-4.6224 -3.7496,-8.3741 -8.3741,-8.3741 -4.6247,0 -8.3729,3.7517 -8.3729,8.3741" /><path
           id="path32"
           style="fill:#ffffff;fill-opacity:1;fill-rule:nonzero;stroke:none"
           d="m 262.7864,291.0526 c 0,1.9571 1.5848,3.5442 3.5439,3.5442 1.9536,0 3.5421,-1.5871 3.5421,-3.5442 0,-1.9559 -1.5885,-3.5438 -3.5421,-3.5438 -1.9591,0 -3.5439,1.5879 -3.5439,3.5438" /><path
           id="path34"
           style="fill:#00a7e0;fill-opacity:1;fill-rule:evenodd;stroke:none"
           d="m 82.9298,136.1282 h -5.9842 l -1.0346,-2.8199 h -3.449 l 5.1733,14.2007 h 4.6049 l 5.1729,-14.2007 h -3.4486 z m -1.0547,2.9415 -1.9273,5.2948 -1.9474,-5.2948 z m 20.5299,1.3592 c 0,-2.4072 -0.5715,-4.2364 -1.7144,-5.4873 -1.1427,-1.2512 -2.8503,-1.8765 -5.1222,-1.8765 -2.272,0 -3.9796,0.6253 -5.1222,1.8765 -1.143,1.2509 -1.7144,3.0801 -1.7144,5.4873 v 7.0801 h 3.4486 v -7.0801 c 0,-2.8806 1.1293,-4.3208 3.388,-4.3208 2.2586,0 3.3877,1.4402 3.3877,4.3208 v 7.0801 h 3.4489 z m 14.7075,4.1386 h -4.6253 v -11.2592 h -3.3471 v 11.2592 h -4.6052 v 2.9415 h 12.5776 z m 7.9319,-11.5024 c -2.2855,0 -4.03,0.6287 -5.2338,1.8864 -1.2036,1.2578 -1.8054,3.0836 -1.8054,5.4774 0,2.3803 0.6018,4.1993 1.8054,5.457 1.2038,1.2577 2.9483,1.8867 5.2338,1.8867 2.2856,0 4.0303,-0.629 5.2339,-1.8867 1.2036,-1.2577 1.8057,-3.0767 1.8057,-5.457 0,-2.3938 -0.6021,-4.2196 -1.8057,-5.4774 -1.2036,-1.2577 -2.9483,-1.8864 -5.2339,-1.8864 z m 0,3.043 c 1.1631,0 2.0523,0.3685 2.6677,1.1055 0.6154,0.737 0.923,1.8088 0.923,3.2153 0,1.393 -0.3076,2.4582 -0.923,3.1952 -0.6154,0.737 -1.5046,1.1055 -2.6677,1.1055 -1.163,0 -2.0522,-0.3685 -2.6676,-1.1055 -0.6154,-0.737 -0.923,-1.8022 -0.923,-3.1952 0,-1.4065 0.3076,-2.4783 0.923,-3.2153 0.6154,-0.737 1.5046,-1.1055 2.6676,-1.1055 z m 25.6218,11.4009 v -14.2007 h -3.2459 v 8.0538 l -3.3472,-8.0538 h -2.9415 l -3.3471,8.0538 v -8.0538 h -3.246 v 14.2007 h 4.0572 l 4.0167,-9.413 3.9966,9.413 z m 12.314,-11.3808 h -5.9845 l -1.0346,-2.8199 h -3.4489 l 5.1732,14.2007 h 4.6049 l 5.1732,-14.2007 h -3.4489 z m -1.055,2.9415 -1.9273,5.2948 -1.9474,-5.2948 z m 17.7911,5.4978 h -4.6253 v -11.2592 h -3.3472 v 11.2592 h -4.6049 v 2.9415 h 12.5774 z m 5.8424,2.9415 v -14.2007 h -3.3471 v 14.2007 z m 16.0671,-10.8737 c -0.5139,-1.1764 -1.302,-2.0656 -2.3635,-2.6677 -1.0616,-0.6018 -2.3837,-0.9025 -3.966,-0.9025 -2.2856,0 -4.0303,0.6287 -5.2339,1.8864 -1.2036,1.2578 -1.8054,3.0836 -1.8054,5.4774 0,2.3803 0.6018,4.1993 1.8054,5.457 1.2036,1.2577 2.9483,1.8867 5.2339,1.8867 1.5687,0 2.8874,-0.2976 3.9558,-0.8926 1.0683,-0.595 1.8598,-1.474 2.3737,-2.6371 l -3.246,-1.258 c -0.568,1.1631 -1.5959,1.7447 -3.0835,1.7447 -1.163,0 -2.0523,-0.3685 -2.6677,-1.1055 -0.6154,-0.737 -0.9229,-1.8022 -0.9229,-3.1952 0,-1.4065 0.3075,-2.4783 0.9229,-3.2153 0.6154,-0.737 1.5047,-1.1055 2.6677,-1.1055 1.474,0 2.5019,0.5882 3.0835,1.7648 z m 14.525,10.8737 v -14.2007 h -3.3474 v 5.3152 h -5.8221 v -5.3152 h -3.3472 v 14.2007 h 3.3472 v -5.944 h 5.8221 v 5.944 z m 6.3496,-2.9415 v -3.0025 h 5.7206 v -2.9415 h -5.7206 v -2.3734 h 7.5464 v -2.9418 H 219.153 v 14.2007 h 10.8938 v -2.9415 z m 21.2196,0 v -3.0025 h 5.7206 v -2.9415 H 243.72 v -2.3734 h 7.5464 v -2.9418 h -10.8938 v 14.2007 h 10.8938 v -2.9415 z m 30.6933,-7.9322 c -0.514,-1.1764 -1.3017,-2.0656 -2.3636,-2.6677 -1.0615,-0.6018 -2.3833,-0.9025 -3.9659,-0.9025 -2.2856,0 -4.03,0.6287 -5.2339,1.8864 -1.2036,1.2578 -1.8054,3.0836 -1.8054,5.4774 0,2.3803 0.6018,4.1993 1.8054,5.457 1.2039,1.2577 2.9483,1.8867 5.2339,1.8867 1.569,0 2.8876,-0.2976 3.956,-0.8926 1.0684,-0.595 1.8595,-1.474 2.3735,-2.6371 l -3.246,-1.258 c -0.5678,1.1631 -1.5956,1.7447 -3.0835,1.7447 -1.1631,0 -2.0523,-0.3685 -2.6677,-1.1055 -0.6151,-0.737 -0.923,-1.8022 -0.923,-3.1952 0,-1.4065 0.3079,-2.4783 0.923,-3.2153 0.6154,-0.737 1.5046,-1.1055 2.6677,-1.1055 1.4743,0 2.5021,0.5882 3.0835,1.7648 z m 11.9486,-0.3852 v -2.9418 h -9.9403 v 14.2007 h 3.3472 v -11.2589 z m 11.7663,-0.1219 h -5.9845 l -1.0347,-2.8199 h -3.4489 l 5.1733,14.2007 h 4.6048 l 5.1733,-14.2007 h -3.4489 z m -1.0551,2.9415 -1.9272,5.2948 -1.9474,-5.2948 z m 14.3224,2.7794 c 1.2441,-0.203 2.2481,-0.47 3.0123,-0.8014 0.7643,-0.3314 1.3354,-0.7775 1.7142,-1.3388 0.3787,-0.5612 0.568,-1.2883 0.568,-2.181 0,-0.8521 -0.25,-1.6194 -0.7506,-2.3025 -0.5003,-0.6829 -1.2339,-1.2204 -2.2011,-1.6127 -0.9669,-0.3923 -2.1334,-0.5882 -3.4994,-0.5882 -1.7444,0 -3.168,0.294 -4.2701,0.8825 -1.1024,0.5881 -1.9171,1.4706 -2.4446,2.6472 l 3.246,1.2578 c 0.2837,-0.595 0.7032,-1.0347 1.2577,-1.3187 0.5545,-0.284 1.2915,-0.4261 2.211,-0.4261 0.6086,0 1.1396,0.078 1.5925,0.2333 0.4533,0.1557 0.8014,0.3484 1.0449,0.5783 0.2435,0.2299 0.3651,0.4465 0.3651,0.6491 0,0.2705 -0.1522,0.4836 -0.4564,0.639 -0.3044,0.1556 -0.6797,0.2707 -1.1259,0.3449 -0.4465,0.0746 -1.082,0.1591 -1.9069,0.2537 -0.9062,0.0811 -1.5417,0.1554 -1.9071,0.2231 -0.9737,0.1622 -1.7782,0.3889 -2.414,0.6795 -0.6355,0.2908 -1.1327,0.7237 -1.491,1.2985 -0.3583,0.5746 -0.5375,1.3423 -0.5375,2.3023 0,0.8521 0.25,1.6198 0.7506,2.3026 0.5003,0.6832 1.2339,1.2206 2.2008,1.6129 0.9672,0.3921 2.1337,0.5882 3.4997,0.5882 1.7444,0 3.168,-0.2942 4.2701,-0.8824 1.1024,-0.5885 1.9171,-1.4709 2.4446,-2.6473 l -3.2459,-1.258 c -0.2841,0.5953 -0.7033,1.0347 -1.2578,1.3187 -0.5544,0.284 -1.2914,0.426 -2.211,0.426 -0.6086,0 -1.1395,-0.0776 -1.5925,-0.2333 -0.4533,-0.1556 -0.8014,-0.3483 -1.0449,-0.5779 -0.2434,-0.2302 -0.3651,-0.4465 -0.3651,-0.6495 0,-0.284 0.1114,-0.5003 0.3348,-0.6491 0.2231,-0.1488 0.5105,-0.2568 0.862,-0.3246 0.3518,-0.0674 0.8725,-0.142 1.5622,-0.223 0.8654,-0.0947 1.4604,-0.169 1.7853,-0.2231 z m 14.5856,0 c 1.2444,-0.203 2.2485,-0.47 3.0127,-0.8014 0.7642,-0.3314 1.3354,-0.7775 1.7141,-1.3388 0.3787,-0.5612 0.5681,-1.2883 0.5681,-2.181 0,-0.8521 -0.25,-1.6194 -0.7506,-2.3025 -0.5004,-0.6829 -1.234,-1.2204 -2.2011,-1.6127 -0.9669,-0.3923 -2.1334,-0.5882 -3.4994,-0.5882 -1.7445,0 -3.168,0.294 -4.2701,0.8825 -1.1024,0.5881 -1.9171,1.4706 -2.4446,2.6472 l 3.2456,1.2578 c 0.2841,-0.595 0.7033,-1.0347 1.2581,-1.3187 0.5544,-0.284 1.2914,-0.4261 2.211,-0.4261 0.6086,0 1.1395,0.078 1.5925,0.2333 0.453,0.1557 0.8013,0.3484 1.0448,0.5783 0.2435,0.2299 0.3651,0.4465 0.3651,0.6491 0,0.2705 -0.1522,0.4836 -0.4563,0.639 -0.3045,0.1556 -0.6798,0.2707 -1.126,0.3449 -0.4464,0.0746 -1.0819,0.1591 -1.9068,0.2537 -0.9063,0.0811 -1.5418,0.1554 -1.9072,0.2231 -0.9737,0.1622 -1.7784,0.3889 -2.414,0.6795 -0.6355,0.2908 -1.1327,0.7237 -1.491,1.2985 -0.3583,0.5746 -0.5377,1.3423 -0.5377,2.3023 0,0.8521 0.2503,1.6198 0.7506,2.3026 0.5006,0.6832 1.2342,1.2206 2.2011,1.6129 0.9672,0.3921 2.1336,0.5882 3.4994,0.5882 1.7447,0 3.1683,-0.2942 4.2704,-0.8824 1.1021,-0.5885 1.917,-1.4709 2.4446,-2.6473 l -3.246,-1.258 c -0.284,0.5953 -0.7033,1.0347 -1.2577,1.3187 -0.5545,0.284 -1.2915,0.426 -2.2113,0.426 -0.6086,0 -1.1393,-0.0776 -1.5923,-0.2333 -0.4532,-0.1556 -0.8013,-0.3483 -1.0448,-0.5779 -0.2435,-0.2302 -0.3651,-0.4465 -0.3651,-0.6495 0,-0.284 0.1114,-0.5003 0.3345,-0.6491 0.2234,-0.1488 0.5108,-0.2568 0.8623,-0.3246 0.3518,-0.0674 0.8722,-0.142 1.5622,-0.223 0.8654,-0.0947 1.4604,-0.169 1.7849,-0.2231 z m 11.2388,5.6599 v -14.2007 h -3.3471 v 14.2007 z m 16.0668,-10.8737 c -0.5139,-1.1764 -1.3017,-2.0656 -2.3632,-2.6677 -1.0619,-0.6018 -2.3837,-0.9025 -3.966,-0.9025 -2.2856,0 -4.0303,0.6287 -5.2339,1.8864 -1.2039,1.2578 -1.8056,3.0836 -1.8056,5.4774 0,2.3803 0.6017,4.1993 1.8056,5.457 1.2036,1.2577 2.9483,1.8867 5.2339,1.8867 1.5687,0 2.8874,-0.2976 3.9558,-0.8926 1.0683,-0.595 1.8595,-1.474 2.3734,-2.6371 l -3.2457,-1.258 c -0.568,1.1631 -1.5959,1.7447 -3.0835,1.7447 -1.1633,0 -2.0523,-0.3685 -2.6677,-1.1055 -0.6154,-0.737 -0.9232,-1.8022 -0.9232,-3.1952 0,-1.4065 0.3078,-2.4783 0.9232,-3.2153 0.6154,-0.737 1.5044,-1.1055 2.6677,-1.1055 1.474,0 2.5019,0.5882 3.0835,1.7648 z m 14.525,10.8737 v -14.2007 h -3.3471 v 5.3152 h -5.8221 v -5.3152 h -3.3474 v 14.2007 h 3.3474 v -5.944 h 5.8221 v 5.944 z m 6.3499,-2.9415 v -3.0025 h 5.7206 v -2.9415 h -5.7206 v -2.3734 h 7.5464 v -2.9418 h -10.8938 v 14.2007 h 10.8938 v -2.9415 z" /><path
           id="path36"
           style="fill:#00a7e0;fill-opacity:1;fill-rule:evenodd;stroke:none"
           d="m 373.5128,241.2524 v -2.9415 h -9.9403 v 14.2005 h 3.3472 v -11.259 z m 11.7663,-0.1216 h -5.9845 l -1.0347,-2.8199 h -3.4486 l 5.173,14.2005 h 4.6048 l 5.1733,-14.2005 h -3.449 z m -1.0551,2.9415 -1.9272,5.2946 -1.9474,-5.2946 z m 18.8663,8.4391 -5.1729,-14.2005 h -4.6049 l -5.1733,14.2005 h 3.449 l 4.0368,-11.056 4.0167,11.056 z m 8.8449,-11.3806 h -5.9845 l -1.0346,-2.8199 h -3.4486 l 5.1729,14.2005 h 4.6052 l 5.1729,-14.2005 h -3.4486 z m -1.0547,2.9415 -1.9273,5.2946 -1.9474,-5.2946 z m 20.5095,8.4391 v -14.2005 h -4.1182 l -5.6599,9.0071 v -9.0071 h -3.3472 v 14.2005 h 3.9963 l 5.7818,-9.1897 v 9.1897 z m 9.2911,0 c 2.3128,0 4.064,-0.5882 5.2543,-1.7649 1.19,-1.1766 1.7853,-2.9483 1.7853,-5.3149 0,-2.3803 -0.5953,-4.1622 -1.7853,-5.3456 -1.1903,-1.1835 -2.9415,-1.7751 -5.2543,-1.7751 h -6.2887 v 14.2005 z m 0,-11.1575 c 2.3939,0 3.5906,1.3592 3.5906,4.0777 0,1.3793 -0.3007,2.3969 -0.9025,3.0529 -0.6018,0.6559 -1.4978,0.9839 -2.6881,0.9839 h -2.9415 v -8.1145 z m 12.74,8.216 v -3.0025 h 5.7206 v -2.9415 h -5.7206 v -2.3735 h 7.5464 v -2.9415 h -10.8938 v 14.2005 h 10.8938 v -2.9415 z m 19.1909,-11.259 -2.3735,4.4833 c -0.6222,-0.0269 -1.082,-0.0405 -1.3796,-0.0405 h -2.3329 v -4.4428 h -3.3472 v 14.2005 h 5.6801 c 1.3929,0 2.5934,-0.1182 3.6008,-0.3549 1.0075,-0.2367 1.8326,-0.7067 2.475,-1.41 0.6423,-0.7033 0.9635,-1.7107 0.9635,-3.0226 0,-2.0423 -0.845,-3.4489 -2.5356,-4.2196 l 2.7589,-5.1934 z m -3.7531,7.3843 c 1.366,0 2.306,0.1791 2.8199,0.5377 0.5139,0.3583 0.7707,0.8552 0.7707,1.491 0,0.4598 -0.098,0.8181 -0.2939,1.0752 -0.1962,0.2568 -0.5513,0.4496 -1.0653,0.578 -0.5139,0.1287 -1.2577,0.1928 -2.2314,0.1928 h -2.3329 v -3.8747 z m 13.0646,6.8162 v -14.2005 h -3.3474 v 14.2005 z m 6.5928,-2.9415 v -3.0025 h 5.7209 v -2.9415 h -5.7209 v -2.3735 h 7.5467 v -2.9415 h -10.8938 v 14.2005 h 10.8938 v -2.9415 z" /></g><g
         id="g38"><g
           id="g40"><path
             id="path42"
             style="fill:#005c9d;fill-opacity:1;fill-rule:nonzero;stroke:none"
             d="m 283.1703,266.5091 c -34.8227,0 -63.0516,28.2289 -63.0516,63.0516 0,34.8236 28.2289,63.0527 63.0516,63.0527 34.8225,0 63.0536,-28.2291 63.0536,-63.0527 0,-34.8227 -28.2311,-63.0516 -63.0536,-63.0516 z m 8.7319,138.2301 v 12.4262 h 2.3184 c 4.6248,0 8.3696,3.7483 8.3696,8.3699 0,4.6244 -3.7448,8.3696 -8.3696,8.3696 h -21.3814 c -4.6194,0 -8.3685,-3.7452 -8.3685,-8.3696 0,-4.6216 3.7491,-8.3699 8.3685,-8.3699 h 2.3216 V 404.714 c -7.2307,-0.8 -14.1597,-2.6065 -20.6334,-5.2849 -17.6003,-7.2834 -36.3714,-11.2879 -55.4191,-11.2879 h -23.5919 c -4.6247,0 -8.3698,-3.7468 -8.3698,-8.3693 0,-4.6236 3.7451,-8.3695 8.3698,-8.3695 h 31.3192 c 4.1766,0 8.8242,-2.5362 8.8242,-8.371 0,-5.8349 -5.1088,-8.3705 -8.8242,-8.3705 h -93.8438 c -7.5053,0 -11.2547,-3.7462 -11.2547,-8.3698 0,-4.6213 3.7494,-8.3704 8.3699,-8.3704 h 78.1138 c 4.5473,-0.0859 8.2102,-3.7815 8.2102,-8.3535 0,-4.6213 -3.7485,-8.3704 -8.3707,-8.3704 h -32.2089 c -4.6245,0 -8.3696,-3.7428 -8.3696,-8.3687 0,-4.6213 3.7451,-8.3673 8.3696,-8.3673 h 48.4682 c 4.6224,0 8.3695,-3.746 8.3695,-8.3707 0,-4.6236 -3.7471,-8.3696 -8.3695,-8.3696 h -23.188 c -4.6247,0 -8.3696,-3.7471 -8.3696,-8.3718 0,-4.6225 3.7449,-8.3699 8.3696,-8.3699 h 17.8804 c 18.4039,0 36.875,-3.0022 53.67,-10.5208 11.7953,-5.2801 25.1816,-7.6249 39.248,-6.1084 35.7845,3.8603 64.345,33.4608 67.0456,69.3545 3.1297,41.557 -27.3462,76.6584 -67.0734,81.0351" /><path
             id="path44"
             style="fill:#005c9d;fill-opacity:1;fill-rule:nonzero;stroke:none"
             d="m 123.01,321.349 c -4.6236,0 -8.3707,-3.7485 -8.3707,-8.3707 0,-4.6204 3.7471,-8.3687 8.3707,-8.3687 4.6245,0 8.3696,3.7483 8.3696,8.3687 0,4.6222 -3.7451,8.3707 -8.3696,8.3707" /><path
             id="path46"
             style="fill:#005c9d;fill-opacity:1;fill-rule:nonzero;stroke:none"
             d="m 138.5932,371.4021 h 10.2926 c 4.6213,0 8.3696,3.7462 8.3696,8.3693 0,4.6236 -3.7483,8.371 -8.3696,8.371 h -10.2926 c -4.6247,0 -8.3696,-3.7474 -8.3696,-8.371 0,-4.6231 3.7449,-8.3693 8.3696,-8.3693" /></g><g
           id="g48"><path
             id="path50"
             style="fill:#005c9d;fill-opacity:1;fill-rule:nonzero;stroke:none"
             d="m 102.9617,212.5502 c -2.0271,0 -3.9424,-0.3965 -5.7458,-1.1882 -1.8043,-0.7943 -3.3891,-1.8726 -4.7566,-3.2366 -1.366,-1.3661 -2.4423,-2.952 -3.234,-4.7554 -0.7929,-1.8066 -1.1906,-3.6769 -1.1906,-5.6141 0,-2.0265 0.3977,-3.9427 1.1906,-5.7458 0.7917,-1.8065 1.868,-3.3684 3.234,-4.6896 1.3675,-1.319 2.9523,-2.3766 4.7566,-3.1694 1.8034,-0.792 3.7187,-1.1883 5.7458,-1.1883 1.9352,0 3.786,0.3963 5.5494,1.1883 1.756,0.7928 3.3202,1.8703 4.6862,3.2363 1.3652,1.3643 2.4435,2.9279 3.2378,4.6882 0.7928,1.7617 1.1882,3.6538 1.1882,5.6803 0,2.1133 -0.3954,4.0712 -1.1882,5.8777 -0.7943,1.8031 -1.8726,3.3673 -3.2378,4.6885 -1.366,1.3221 -2.9302,2.3556 -4.6862,3.1068 -1.7634,0.7435 -3.6142,1.1213 -5.5494,1.1213 z m 23.3782,37.3782 c 2.2909,0 4.2942,-0.8127 6.0108,-2.4414 1.7173,-1.6319 2.575,-3.7208 2.575,-6.2751 v -43.456 c 0,-4.3151 -0.8577,-8.4104 -2.575,-12.2836 -1.7166,-3.8767 -4.0527,-7.2646 -7.0015,-10.1696 -2.952,-2.9069 -6.3618,-5.2189 -10.2365,-6.9344 -3.8758,-1.7186 -7.9248,-2.5764 -12.151,-2.5764 -4.2282,0 -8.2772,0.8368 -12.1507,2.5095 -3.8789,1.6705 -7.289,3.9614 -10.2387,6.8684 -2.9512,2.9058 -5.3068,6.2929 -7.0651,10.1718 -1.7635,3.8735 -2.6411,8.0116 -2.6411,12.4143 0,4.3138 0.8567,8.409 2.5722,12.2848 1.7209,3.8733 4.0501,7.2647 7.0033,10.1719 2.9474,2.9038 6.3598,5.2166 10.2356,6.9318 3.8747,1.7187 7.9685,2.5767 12.2845,2.5767 5.2835,0 10.1699,-1.186 14.6616,-3.5651 v 15.1889 c 0,1.1429 0.2393,2.2456 0.7271,3.3032 0.4819,1.0564 1.1211,1.9788 1.9151,2.7731 0.7895,0.7917 1.7155,1.4068 2.7731,1.8496 1.0554,0.4391 2.1561,0.6576 3.3013,0.6576" /><path
             id="path52"
             style="fill:#005c9d;fill-opacity:1;fill-rule:nonzero;stroke:none"
             d="m 334.0142,165.7919 c -2.3765,0 -4.3588,0.7699 -5.9436,2.3117 -1.5849,1.5409 -2.4642,3.5866 -2.6402,6.1412 v 24.4358 c 0.0856,4.2282 0.9884,8.2114 2.7062,11.9543 1.7186,3.7428 4.0076,7.0013 6.8706,9.7761 2.8576,2.772 6.2059,4.9751 10.0366,6.6027 3.8308,1.6288 7.8993,2.5294 12.2176,2.7094 2.4668,0 4.5128,-0.8391 6.1439,-2.5118 1.6251,-1.6736 2.5279,-3.6978 2.707,-6.0744 0,-2.3785 -0.839,-4.3829 -2.5106,-6.0103 -1.6727,-1.6299 -3.7448,-2.4908 -6.2096,-2.5766 -2.025,0 -3.916,-0.3756 -5.6775,-1.1211 -1.7626,-0.7512 -3.3038,-1.7825 -4.6227,-3.1037 -1.3213,-1.3221 -2.3786,-2.8851 -3.1717,-4.6896 -0.7897,-1.8066 -1.1872,-3.7647 -1.1872,-5.8797 v -24.038 c -0.1777,-2.291 -1.0377,-4.1857 -2.5752,-5.6801 -1.5432,-1.497 -3.589,-2.2459 -6.1436,-2.2459" /><path
             id="path54"
             style="fill:#005c9d;fill-opacity:1;fill-rule:nonzero;stroke:none"
             d="m 249.3975,180.3883 c -1.6727,1.63 -3.7451,2.4908 -6.2093,2.5767 -2.0251,0 -3.9175,0.3753 -5.6781,1.1214 -1.7634,0.7512 -3.3032,1.7822 -4.6221,3.1034 -1.3213,1.3212 -2.3789,2.8848 -3.1729,4.6896 -0.79,1.8051 -1.1862,3.7644 -1.1862,5.8785 v 11.1351 h 13.2128 c 2.291,0.1777 4.1831,1.0377 5.6778,2.5787 1.4992,1.5394 2.2462,3.5878 2.2462,6.1423 0,2.3755 -0.7699,4.3589 -2.312,5.9426 -1.5386,1.5846 -3.5847,2.4664 -6.1415,2.6425 h -12.6833 v 18.3863 c -0.1781,2.291 -1.0378,4.1854 -2.5765,5.6798 -1.5417,1.4973 -3.5878,2.2462 -6.1424,2.2462 -2.3765,0 -4.3588,-0.7699 -5.9448,-2.3131 -1.5848,-1.5395 -2.4641,-3.5855 -2.6402,-6.1401 v -47.2238 c 0.0856,-4.2282 0.9899,-8.2114 2.7074,-11.9543 1.7178,-3.7428 4.0065,-7.001 6.8703,-9.7764 2.8568,-2.7717 6.2051,-4.9751 10.0367,-6.6024 3.8307,-1.6288 7.8998,-2.5294 12.2181,-2.7094 2.4665,0 4.5125,0.8391 6.1424,2.5115 1.6263,1.6739 2.5291,3.6978 2.7071,6.0744 0,2.3788 -0.839,4.3829 -2.5095,6.0105" /><path
             id="path56"
             style="fill:#005c9d;fill-opacity:1;fill-rule:nonzero;stroke:none"
             d="m 477.6786,192.1686 c -0.792,-1.8046 -1.868,-3.3869 -3.2366,-4.7532 -1.364,-1.364 -2.9497,-2.4434 -4.7531,-3.2363 -1.8065,-0.7942 -3.7219,-1.1908 -5.7492,-1.1908 -1.9338,0 -3.7834,0.377 -5.5474,1.1236 -1.7581,0.7512 -3.3197,1.7825 -4.6883,3.1037 -1.3617,1.3212 -2.4412,2.8848 -3.234,4.6896 -0.7943,1.8074 -1.1906,3.7647 -1.1906,5.8788 0,2.0271 0.3963,3.9192 1.1906,5.6798 0.7928,1.7617 1.8723,3.323 3.234,4.6873 1.3686,1.3686 2.9302,2.4446 4.6883,3.2364 1.764,0.7942 3.6136,1.1882 5.5474,1.1882 2.0273,0 3.9427,-0.394 5.7492,-1.1882 1.8034,-0.7918 3.3891,-1.8491 4.7531,-3.1703 1.3686,-1.3212 2.4446,-2.8831 3.2366,-4.6885 0.7937,-1.8045 1.1883,-3.7176 1.1883,-5.7447 0,-1.9363 -0.3946,-3.8078 -1.1883,-5.6154 z m 15.812,18.0394 c -1.711,3.9053 -4.0403,7.2825 -6.9965,10.1389 -2.9532,2.8554 -6.3808,5.1421 -10.2807,6.8551 -3.9042,1.7143 -8.0456,2.5698 -12.4277,2.5698 -4.185,0 -8.1861,-0.8555 -11.9968,-2.5698 -3.8012,-1.713 -7.1812,-4.0403 -10.1378,-6.9988 -2.9466,-2.9489 -5.2804,-6.3272 -6.997,-10.137 -1.7153,-3.8072 -2.5719,-7.8981 -2.5719,-12.2822 0,-4.5711 0.8566,-8.8024 2.5719,-12.7111 1.7166,-3.8999 4.0504,-7.2822 6.997,-10.1387 2.9566,-2.8579 6.3366,-5.0902 10.1378,-6.7147 3.8107,-1.6101 7.8118,-2.4282 11.9968,-2.4282 4.3821,0 8.5235,0.8589 12.4277,2.5719 3.8999,1.7167 7.3275,4.0504 10.2807,6.9993 2.9562,2.9563 5.2855,6.3819 6.9965,10.2816 1.7166,3.9072 2.5724,7.9534 2.5724,12.1399 0,4.3841 -0.8558,8.5241 -2.5724,12.424" /><path
             id="path58"
             style="fill:#005c9d;fill-opacity:1;fill-rule:nonzero;stroke:none"
             d="m 409.6653,192.1686 c -0.7915,-1.8046 -1.8678,-3.3869 -3.2364,-4.7532 -1.364,-1.364 -2.95,-2.4434 -4.7531,-3.2363 -1.8065,-0.7942 -3.7219,-1.1908 -5.7492,-1.1908 -1.9341,0 -3.7831,0.377 -5.5471,1.1236 -1.7584,0.7512 -3.32,1.7825 -4.6883,3.1037 -1.362,1.3212 -2.4414,2.8848 -3.2343,4.6896 -0.794,1.8074 -1.1905,3.7647 -1.1905,5.8788 0,2.0271 0.3965,3.9192 1.1905,5.6798 0.7929,1.7617 1.8723,3.323 3.2343,4.6873 1.3683,1.3686 2.9299,2.4446 4.6883,3.2364 1.764,0.7942 3.613,1.1882 5.5471,1.1882 2.0273,0 3.9427,-0.394 5.7492,-1.1882 1.8031,-0.7918 3.3891,-1.8491 4.7531,-3.1703 1.3686,-1.3212 2.4449,-2.8831 3.2364,-4.6885 0.6162,-1.3992 0.9841,-2.8664 1.1213,-4.3997 -0.0121,-0.1216 -0.0317,-0.2403 -0.0425,-0.3645 v -2.6444 c -0.163,-1.3499 -0.5139,-2.6666 -1.0788,-3.9515 z m 18.3702,6.2027 c -0.0735,4.1656 -0.9182,8.1128 -2.5577,11.8367 -1.711,3.9053 -4.0403,7.2825 -6.9968,10.1389 -2.9531,2.8554 -6.3808,5.1421 -10.2807,6.8551 -3.9041,1.7143 -8.0456,2.5698 -12.4274,2.5698 -4.1853,0 -8.1861,-0.8555 -11.9973,-2.5698 -3.8007,-1.713 -7.1813,-4.0403 -10.1376,-6.9988 -2.9463,-2.9489 -5.2803,-6.3272 -6.9967,-10.137 -1.7155,-3.8072 -2.5722,-7.8981 -2.5722,-12.2822 0,-4.5711 0.8567,-8.8024 2.5722,-12.7111 1.7164,-3.8999 4.0504,-7.2822 6.9967,-10.1387 2.9563,-2.8579 6.3369,-5.0902 10.1376,-6.7147 3.8112,-1.6101 7.812,-2.4282 11.9973,-2.4282 4.3818,0 8.5233,0.8589 12.4274,2.5719 0.8754,0.3867 1.7178,0.813 2.5438,1.2597 v -4.6332 c 0,-2.1155 -0.3946,-4.0714 -1.1863,-5.8779 -0.7928,-1.8034 -1.8507,-3.367 -3.1717,-4.6882 -1.3186,-1.3213 -2.8598,-2.3556 -4.6224,-3.106 -1.7595,-0.7443 -3.6516,-1.1222 -5.6781,-1.1222 -2.4642,-0.0856 -4.5366,-0.9456 -6.2079,-2.5744 -1.6727,-1.6274 -2.5117,-3.6329 -2.5117,-6.0117 0.1777,-2.3763 1.0817,-4.4014 2.707,-6.0741 1.6311,-1.6719 3.6791,-2.5107 6.1436,-2.5107 4.318,0.1789 8.3894,1.0795 12.2179,2.7071 3.8307,1.6308 7.179,3.8319 10.0389,6.6047 2.8629,2.7754 5.1516,6.0316 6.8692,9.7742 1.7166,3.7463 2.6194,7.7272 2.707,11.9543 v 34.1713 c -0.004,0.0474 -0.0107,0.0902 -0.0141,0.1352" /><path
             id="path60"
             style="fill:#005c9d;fill-opacity:1;fill-rule:nonzero;stroke:none"
             d="m 320.37,201.6473 c -0.0769,0.8621 -0.2384,1.7618 -0.4547,2.6785 -0.4272,2.0163 -1.0488,3.9787 -1.8856,5.8822 -1.5015,3.4273 -3.5088,6.4224 -5.9667,9.0408 -1.4201,1.6469 -2.8752,2.9903 -4.2392,3.8358 -0.0584,0.0363 -0.1131,0.055 -0.1712,0.0856 -2.1129,1.5696 -4.3974,2.9325 -6.9004,4.0326 -3.9041,1.7135 -8.0456,2.569 -12.4285,2.569 -4.1845,0 -8.1842,-0.8555 -11.9962,-2.569 -3.8007,-1.7138 -7.181,-4.0433 -10.1364,-6.9999 -2.9478,-2.9508 -5.2812,-6.3289 -6.9979,-10.1367 -1.7155,-3.8075 -2.571,-7.8993 -2.571,-12.2825 0,-4.5708 0.8555,-8.8024 2.571,-12.7108 1.7167,-3.9019 4.0501,-7.2825 6.9979,-10.139 2.9554,-2.8576 6.3357,-5.0904 10.1364,-6.7136 2.5461,-1.0774 5.1763,-1.8 7.8899,-2.16 0.726,-0.0966 1.4596,-0.1595 2.1975,-0.2131 3.1487,-0.2296 5.7523,0.3217 6.0621,0.4019 6.2261,1.6056 9.2209,5.5165 6.9089,12.0158 -1.8768,5.277 -5.8731,5.4241 -7.8939,5.12 -0.3733,-0.0559 -0.684,-0.1112 -0.8918,-0.1869 -1.0122,-0.3622 -3.0827,-0.1868 -3.5569,-0.1394 -1.4182,0.1417 -2.7899,0.4932 -4.1108,1.0511 -1.7595,0.7512 -3.3211,1.7847 -4.6894,3.1059 -1.362,1.3209 -2.4417,2.8848 -3.2346,4.6893 -0.7937,1.8054 -1.1902,3.7645 -1.1902,5.8765 0,2.0277 0.3965,3.9198 1.1902,5.6801 0.7929,1.7617 1.8726,3.3253 3.2346,4.6896 1.3683,1.3661 2.9299,2.4421 4.6894,3.2364 1.7626,0.7917 3.6111,1.1367 5.5463,1.1882 5.2461,0.1372 8.2661,-2.0846 8.9699,-2.6597 1.2719,-1.0446 4.5488,-5.2849 0.2055,-6.3533 -4.5238,-1.1137 -10.5015,-0.2075 -11.1251,-6.1863 -0.627,-5.9755 4.7245,-7.2287 16.7479,-7.0178 12.0226,0.2075 17.786,3.6077 17.093,11.2887" /><path
             id="path62"
             style="fill:#005c9d;fill-opacity:1;fill-rule:nonzero;stroke:none"
             d="m 205.4341,201.6473 c -0.079,0.8621 -0.2406,1.7618 -0.4569,2.6785 -0.4272,2.0163 -1.0488,3.9787 -1.8856,5.8822 -1.5015,3.4273 -3.5067,6.4224 -5.9669,9.0408 -1.4199,1.6469 -2.8749,2.9903 -4.239,3.8358 -0.0561,0.0363 -0.1131,0.055 -0.1692,0.0856 -2.1132,1.5696 -4.3994,2.9325 -6.9024,4.0326 -3.9018,1.7135 -8.0455,2.569 -12.4285,2.569 -4.1822,0 -8.1853,-0.8555 -11.9962,-2.569 -3.801,-1.7138 -7.1801,-4.0433 -10.1375,-6.9999 -2.9475,-2.9508 -5.2815,-6.3289 -6.9968,-10.1367 -1.7166,-3.8075 -2.5721,-7.8993 -2.5721,-12.2825 0,-4.5708 0.8555,-8.8024 2.5721,-12.7108 1.7153,-3.9019 4.0493,-7.2825 6.9968,-10.139 2.9574,-2.8576 6.3365,-5.0904 10.1375,-6.7136 2.5458,-1.0774 5.1772,-1.8 7.8908,-2.16 0.7248,-0.0966 1.4607,-0.1595 2.1989,-0.2131 3.1484,-0.2296 5.75,0.3217 6.0621,0.4019 6.2249,1.6056 9.2206,5.5165 6.9066,12.0158 -1.8768,5.277 -5.8708,5.4241 -7.8916,5.12 -0.3759,-0.0559 -0.6866,-0.1112 -0.8941,-0.1869 -1.0102,-0.3622 -3.0826,-0.1868 -3.5549,-0.1394 -1.4201,0.1417 -2.7904,0.4932 -4.1139,1.0511 -1.7561,0.7512 -3.3202,1.7847 -4.6862,3.1059 -1.3649,1.3209 -2.4438,2.8848 -3.2375,4.6893 -0.7928,1.8054 -1.1883,3.7645 -1.1883,5.8765 0,2.0277 0.3955,3.9198 1.1883,5.6801 0.7937,1.7617 1.8726,3.3253 3.2375,4.6896 1.366,1.3661 2.9301,2.4421 4.6862,3.2364 1.7637,0.7917 3.6144,1.1367 5.5491,1.1882 5.2444,0.1372 8.2664,-2.0846 8.9682,-2.6597 1.2742,-1.0446 4.5502,-5.2849 0.2056,-6.3533 -4.5239,-1.1137 -10.4993,-0.2075 -11.1252,-6.1863 -0.625,-5.9755 4.7268,-7.2287 16.7502,-7.0178 12.0223,0.2075 17.786,3.6077 17.0929,11.2887" /></g></g></g></g></svg>